<?xml version="1.0" standalone="no"?>
<!DOCTYPE svg PUBLIC "-//W3C//DTD SVG 20010904//EN"
 "http://www.w3.org/TR/2001/REC-SVG-20010904/DTD/svg10.dtd">
<svg version="1.0" xmlns="http://www.w3.org/2000/svg"
 width="96.000000pt" height="96.000000pt" viewBox="0 0 96.000000 96.000000"
 preserveAspectRatio="xMidYMid meet">

<g transform="translate(0.000000,96.000000) scale(0.100000,-0.100000)"
fill="#7C3AED" stroke="none">
<path d="M440 875 c-6 -14 -10 -34 -10 -44 0 -11 -12 -21 -35 -28 -32 -10 -37
-9 -59 18 -28 33 -42 36 -73 14 -21 -14 -21 -18 -8 -54 13 -37 12 -40 -13 -64
-25 -23 -29 -24 -64 -11 -35 12 -39 11 -53 -9 -22 -31 -19 -45 14 -73 27 -22
28 -27 19 -57 -9 -28 -17 -35 -52 -43 -38 -8 -41 -11 -41 -44 0 -33 3 -36 41
-44 35 -8 43 -15 52 -43 9 -30 8 -35 -19 -57 -33 -28 -36 -42 -14 -73 14 -21
18 -21 54 -8 36 13 40 12 64 -12 24 -24 25 -28 12 -64 -13 -36 -13 -40 8 -54
31 -22 45 -19 73 14 22 27 27 28 57 19 28 -9 35 -17 43 -52 8 -38 11 -41 44
-41 33 0 36 3 44 41 8 35 15 43 43 52 30 9 35 8 57 -19 28 -33 42 -36 73 -14
21 14 21 18 8 54 -13 36 -12 40 12 64 24 24 28 25 64 12 36 -13 40 -13 54 8
22 31 19 45 -14 73 -27 22 -28 27 -19 57 9 28 17 35 52 43 38 8 41 11 41 44 0
33 -3 36 -41 44 -35 8 -43 15 -52 43 -9 30 -8 35 19 57 33 28 36 42 14 73 -14
20 -18 21 -53 9 -35 -13 -39 -12 -64 11 -25 24 -26 27 -13 64 13 36 13 40 -8
54 -31 22 -45 19 -73 -14 -22 -27 -27 -28 -57 -19 -28 9 -35 17 -43 52 -8 37
-12 41 -42 44 -27 3 -34 -1 -42 -23z m0 -238 c0 -55 -3 -67 -25 -87 -14 -13
-27 -37 -31 -54 -4 -25 -16 -38 -55 -59 -27 -16 -54 -25 -59 -22 -15 9 -12
110 3 148 21 49 62 93 110 116 23 12 45 21 50 21 4 0 7 -28 7 -63z m162 27
c60 -38 91 -95 96 -171 6 -85 -3 -92 -66 -57 -40 22 -52 35 -56 60 -4 17 -17
41 -31 54 -22 20 -25 32 -25 87 0 62 1 64 23 58 12 -4 39 -18 59 -31z m-138
-280 c12 -3 34 0 50 6 24 9 36 6 83 -21 52 -30 53 -32 37 -50 -69 -76 -239
-76 -308 0 -16 18 -15 20 36 50 29 17 59 28 66 26 8 -3 24 -8 36 -11z"/>
</g>
</svg>
