<svg width="24" height="24" viewBox="0 0 24 24" fill="none" xmlns="http://www.w3.org/2000/svg">
  <path d="M21.75 4H17V2.75C17 2.336 16.664 2 16.25 2C15.836 2 15.5 2.336 15.5 2.75V4H8.5V2.75C8.5 2.336 8.164 2 7.75 2C7.336 2 7 2.336 7 2.75V4H2.25C1.561 4 1 4.561 1 5.25V19.75C1 20.439 1.561 21 2.25 21H21.75C22.439 21 23 20.439 23 19.75V5.25C23 4.561 22.439 4 21.75 4Z" fill="#4285F4"/>
  <path d="M7 11H5V13H7V11Z" fill="white"/>
  <path d="M11 11H9V13H11V11Z" fill="white"/>
  <path d="M15 11H13V13H15V11Z" fill="white"/>
  <path d="M19 11H17V13H19V11Z" fill="white"/>
  <path d="M7 15H5V17H7V15Z" fill="white"/>
  <path d="M11 15H9V17H11V15Z" fill="white"/>
  <path d="M15 15H13V17H15V15Z" fill="white"/>
  <path d="M19 15H17V17H19V15Z" fill="white"/>
</svg> 